<svg xmlns="http://www.w3.org/2000/svg" width="18" height="18" viewBox="0 0 18 18">
  <path fill="#EA4335" d="M9 3.48c1.69 0 2.79.73 3.43 1.34l2.5-2.43C13.12.84 11.19 0 9 0 5.48 0 2.44 1.99.96 4.91l2.9 2.26C4.62 5.04 6.64 3.48 9 3.48z"/>
  <path fill="#34A853" d="M17.64 9.2c0-.7-.06-1.37-.16-2H9v3.8h4.84c-.21 1.1-.84 2.03-1.8 2.66l2.74 2.13C16.56 14 17.64 11.79 17.64 9.2z"/>
  <path fill="#FBBC05" d="M3.86 10.83c-.22-.66-.34-1.36-.34-2.08s.12-1.43.34-2.08L.96 4.91C.35 6.18 0 7.56 0 9.04s.35 2.86.96 4.13l2.9-2.26z"/>
  <path fill="#4285F4" d="M9 18c2.43 0 4.47-.8 5.96-2.17l-2.74-2.13c-.75.5-1.71.8-2.83.8-2.16 0-3.99-1.45-4.64-3.4l-2.9 2.26C2.44 16.01 5.48 18 9 18z"/>
</svg>
